<svg width="32" height="32" viewBox="0 0 32 32" fill="none" xmlns="http://www.w3.org/2000/svg">
<path d="M31.41 17H29V14.55L31.41 17Z" fill="white"/>
<path d="M28 19C27.735 18.9992 27.4811 18.8936 27.2938 18.7062C27.1064 18.5189 27.0008 18.265 27 18V14H21C20.2051 14.0024 19.4434 14.3192 18.8813 14.8813C18.3192 15.4434 18.0024 16.2051 18 17V29C18.0024 29.7949 18.3192 30.5566 18.8813 31.1187C19.4434 31.6808 20.2051 31.9976 21 32H29C29.7949 31.9976 30.5566 31.6808 31.1187 31.1187C31.6808 30.5566 31.9976 29.7949 32 29V19H28ZM27 28H23C22.7348 28 22.4804 27.8946 22.2929 27.7071C22.1054 27.5196 22 27.2652 22 27C22 26.7348 22.1054 26.4804 22.2929 26.2929C22.4804 26.1053 22.7348 26 23 26H27C27.2652 26 27.5196 26.1053 27.7071 26.2929C27.8946 26.4804 28 26.7348 28 27C28 27.2652 27.8946 27.5196 27.7071 27.7071C27.5196 27.8946 27.2652 28 27 28ZM27 24H23C22.7348 24 22.4804 23.8946 22.2929 23.7071C22.1054 23.5196 22 23.2652 22 23C22 22.7348 22.1054 22.4804 22.2929 22.2929C22.4804 22.1053 22.7348 22 23 22H27C27.2652 22 27.5196 22.1053 27.7071 22.2929C27.8946 22.4804 28 22.7348 28 23C28 23.2652 27.8946 23.5196 27.7071 23.7071C27.5196 23.8946 27.2652 24 27 24ZM13.41 2.99999H11V0.549988L13.41 2.99999Z" fill="white"/>
<path d="M10 5C9.73503 4.99921 9.48113 4.8936 9.29377 4.70623C9.1064 4.51887 9.00079 4.26497 9 4V0H3C2.20508 0.00237409 1.4434 0.319207 0.881302 0.881302C0.319207 1.4434 0.00237409 2.20508 0 3V15C0.00237409 15.7949 0.319207 16.5566 0.881302 17.1187C1.4434 17.6808 2.20508 17.9976 3 18H11C11.7949 17.9976 12.5566 17.6808 13.1187 17.1187C13.6808 16.5566 13.9976 15.7949 14 15V5H10ZM9 14H5C4.73478 14 4.48043 13.8946 4.29289 13.7071C4.10536 13.5196 4 13.2652 4 13C4 12.7348 4.10536 12.4804 4.29289 12.2929C4.48043 12.1054 4.73478 12 5 12H9C9.26522 12 9.51957 12.1054 9.70711 12.2929C9.89464 12.4804 10 12.7348 10 13C10 13.2652 9.89464 13.5196 9.70711 13.7071C9.51957 13.8946 9.26522 14 9 14ZM9 10H5C4.73478 10 4.48043 9.89464 4.29289 9.70711C4.10536 9.51957 4 9.26522 4 9C4 8.73478 4.10536 8.48043 4.29289 8.29289C4.48043 8.10536 4.73478 8 5 8H9C9.26522 8 9.51957 8.10536 9.70711 8.29289C9.89464 8.48043 10 8.73478 10 9C10 9.26522 9.89464 9.51957 9.70711 9.70711C9.51957 9.89464 9.26522 10 9 10ZM25 11C24.7348 11 24.4804 10.8946 24.2929 10.7071C24.1054 10.5196 24 10.2652 24 10V6C24 5.73478 23.8946 5.48043 23.7071 5.29289C23.5196 5.10536 23.2652 5 23 5H17C16.7348 5 16.4804 4.89464 16.2929 4.70711C16.1054 4.51957 16 4.26522 16 4C16 3.73478 16.1054 3.48043 16.2929 3.29289C16.4804 3.10536 16.7348 3 17 3H23C23.7954 3.00079 24.558 3.31712 25.1204 3.87956C25.6829 4.44199 25.9992 5.20459 26 6V10C26 10.2652 25.8946 10.5196 25.7071 10.7071C25.5196 10.8946 25.2652 11 25 11Z" fill="white"/>
<path d="M25 12C24.8687 12.0001 24.7386 11.9743 24.6173 11.9241C24.4959 11.8738 24.3857 11.8 24.293 11.707L22.293 9.70701C22.1108 9.51841 22.0101 9.26581 22.0123 9.00361C22.0146 8.74141 22.1198 8.4906 22.3052 8.30519C22.4906 8.11978 22.7414 8.01462 23.0036 8.01234C23.2658 8.01006 23.5184 8.11085 23.707 8.29301L25 9.58601L26.293 8.29301C26.4816 8.11085 26.7342 8.01006 26.9964 8.01234C27.2586 8.01462 27.5094 8.11978 27.6948 8.30519C27.8802 8.4906 27.9854 8.74141 27.9877 9.00361C27.99 9.26581 27.8892 9.51841 27.707 9.70701L25.707 11.707C25.6143 11.8 25.5041 11.8738 25.3827 11.9241C25.2614 11.9743 25.1313 12.0001 25 12ZM15 29H9C8.2046 28.9992 7.44199 28.6829 6.87956 28.1205C6.31712 27.558 6.0008 26.7954 6 26V22C6 21.7348 6.10536 21.4804 6.29289 21.2929C6.48043 21.1054 6.73478 21 7 21C7.26522 21 7.51957 21.1054 7.70711 21.2929C7.89464 21.4804 8 21.7348 8 22V26C8 26.2652 8.10536 26.5196 8.29289 26.7071C8.48043 26.8947 8.73478 27 9 27H15C15.2652 27 15.5196 27.1054 15.7071 27.2929C15.8946 27.4804 16 27.7348 16 28C16 28.2652 15.8946 28.5196 15.7071 28.7071C15.5196 28.8947 15.2652 29 15 29Z" fill="white"/>
<path d="M9.00001 24C8.86868 24.0001 8.73861 23.9743 8.61728 23.924C8.49595 23.8738 8.38575 23.8 8.29301 23.707L7.00001 22.414L5.70701 23.707C5.51841 23.8892 5.26581 23.99 5.00361 23.9877C4.74141 23.9854 4.4906 23.8802 4.30519 23.6948C4.11978 23.5094 4.01462 23.2586 4.01234 22.9964C4.01006 22.7342 4.11085 22.4816 4.29301 22.293L6.29301 20.293C6.48054 20.1055 6.73485 20.0002 7.00001 20.0002C7.26518 20.0002 7.51948 20.1055 7.70701 20.293L9.70701 22.293C9.84682 22.4329 9.94203 22.611 9.98059 22.805C10.0192 22.9989 9.99936 23.2 9.92369 23.3827C9.84802 23.5654 9.71988 23.7215 9.55547 23.8314C9.39106 23.9413 9.19776 24 9.00001 24Z" fill="white"/>
</svg>
