<svg width="18" height="37" viewBox="0 0 18 37" fill="none" xmlns="http://www.w3.org/2000/svg">
<g clip-path="url(#clip0_1915_6158)">
<g clip-path="url(#clip1_1915_6158)">
<path fill-rule="evenodd" clip-rule="evenodd" d="M4.91336 0.784381C4.70491 1.57924 5.31242 3.38796 6.04888 4.16497C6.3725 4.50563 6.37818 4.53564 6.10079 4.43993C5.85097 4.35315 5.82502 4.37504 5.97426 4.54699C6.12593 4.72138 6.03103 4.76599 5.46165 4.78626C4.13635 4.83493 1.93588 6.16105 2.28545 6.70285C2.4428 6.94699 3.52479 6.90238 4.40238 6.61607C4.82658 6.47818 5.53546 6.05317 5.97669 5.67278C6.41873 5.29157 6.82833 5.01337 6.88592 5.05392C6.94431 5.09447 6.92323 5.04743 6.83806 4.9501C6.74235 4.8398 6.74641 4.61675 6.84861 4.35801C7.1698 3.5518 6.58906 1.55166 5.79825 0.745449C5.34161 0.279887 5.04233 0.292864 4.91417 0.784381H4.91336ZM0.395631 1.64656C0.186372 1.7739 0.199349 1.85582 0.492961 2.23054C1.00557 2.88995 2.23111 3.53963 3.30742 3.72374C4.18907 3.87461 4.45753 3.9403 5.42272 4.24527C5.60441 4.30205 5.51843 4.23067 5.23293 4.08549C4.94662 3.93949 4.61488 3.6475 4.49647 3.43419C4.1696 2.84859 3.14439 2.1397 2.13216 1.79905C1.12561 1.46001 0.756563 1.42757 0.395631 1.64656ZM8.86252 2.69124C8.51133 3.20546 8.51133 4.95821 8.86252 5.87879C9.00365 6.24865 9.10342 6.55848 9.08476 6.5674C9.06692 6.57632 8.41967 6.59741 7.64915 6.61526C6.62394 6.63797 6.03752 6.73692 5.46409 6.9843C3.99927 7.61775 4.63841 8.21066 6.66449 8.09791C7.67186 8.04276 8.09767 7.93651 8.71978 7.58693L8.98175 7.44013C9.12909 7.35747 9.30045 7.32823 9.46686 7.35734C9.63326 7.38646 9.78451 7.47214 9.89503 7.59991C10.1108 7.8481 10.4441 8.2869 10.6364 8.57402C10.8278 8.86114 11.0232 9.06067 11.0687 9.01606C11.1611 8.92684 10.1019 7.49447 9.71903 7.1895C9.50571 7.01917 9.51058 6.94537 9.75796 6.58281C9.96884 6.2746 10.0402 5.8285 10.0402 4.81952C10.0402 2.82993 9.47084 1.80148 8.86252 2.69124ZM11.7224 6.03695C11.4507 6.60147 11.3615 7.08812 11.3607 7.99734C11.3607 8.69244 11.2958 9.16854 11.2082 9.11663C11.1246 9.06797 11.1027 9.1434 11.1595 9.28453C11.2439 9.49541 11.14 9.47919 10.569 9.19125C9.6801 8.74354 7.33363 8.68271 6.90214 9.09636C6.658 9.32995 6.658 9.37132 6.90295 9.60572C7.26064 9.94881 8.69463 10.3438 9.58115 10.3438C9.97533 10.3438 10.5561 10.2408 10.8708 10.1143C11.0287 10.0512 11.2041 10.0479 11.3643 10.1051C11.5244 10.1623 11.6581 10.2761 11.7402 10.4249L11.7654 10.4703C11.9422 10.7915 12.0906 10.9975 12.0947 10.9286C12.0987 10.8588 11.9852 10.5855 11.8416 10.3203C11.5983 9.8677 11.6024 9.81579 11.9049 9.49784C12.6876 8.67703 13.1556 6.81559 12.862 5.69549C12.6811 5.00282 12.1417 5.16504 11.7224 6.03695ZM14.4679 9.15394C13.9326 9.51244 13.1556 10.798 12.8506 11.8273L12.8157 11.9449C12.7903 12.0304 12.7434 12.108 12.6796 12.1704C12.6157 12.2327 12.537 12.2777 12.4509 12.3011C12.3648 12.3245 12.2741 12.3255 12.1875 12.304C12.1009 12.2826 12.0212 12.2394 11.956 12.1785C11.2374 11.5061 9.9145 10.9756 8.95499 10.9756C8.35965 10.9756 8.29152 11.0138 8.33857 11.3244C8.46104 12.1339 10.9081 13.301 12.1847 13.1583C12.7257 13.0982 12.7322 13.1047 12.9115 13.9596C13.0104 14.4341 13.0915 15.0748 13.0915 15.3855C13.0915 15.4236 13.0794 15.4608 13.0569 15.4915C13.0344 15.5223 13.0026 15.5451 12.9663 15.5566C12.9299 15.5681 12.8908 15.5677 12.8547 15.5554C12.8186 15.5432 12.7873 15.5197 12.7655 15.4885L12.6973 15.3912C12.0428 14.469 10.1156 13.3959 9.5122 13.6181C8.59325 13.9556 10.6721 15.9573 12.3696 16.3693C13.0469 16.534 13.0501 16.538 13.2132 17.5089C13.2318 17.6241 13.4013 17.6127 13.4046 17.4959L13.4062 17.4554L13.4086 17.3726C13.417 17.089 13.5043 16.8133 13.6608 16.5766C13.8172 16.3399 14.0367 16.1516 14.2943 16.0327C14.8758 15.7647 15.3827 15.3581 15.7705 14.8486C16.3464 14.1113 16.7171 13.1331 16.5005 12.9247C16.0998 12.5418 14.3325 13.8671 13.8353 14.9232C13.6706 15.2728 13.4898 15.5591 13.4338 15.5591C13.377 15.5591 13.2399 15.014 13.1296 14.3481L13.0688 13.9799C13.0263 13.724 13.052 13.4615 13.1433 13.2187C13.2346 12.9759 13.3882 12.7615 13.5887 12.597C14.3479 11.9741 14.9651 11.0259 15.2238 10.0843C15.5118 9.03715 15.2052 8.65918 14.4679 9.15394ZM12.1279 11.2133C12.1279 11.3001 12.2269 11.6196 12.3494 11.9238C12.471 12.2288 12.574 12.3699 12.5765 12.2401C12.5797 12.1103 12.48 11.79 12.3559 11.5288C12.231 11.2684 12.1288 11.1257 12.1288 11.2125L12.1279 11.2133ZM9.67847 16.611C9.40757 17.2875 11.1676 19.2941 12.3632 19.6729C13.0307 19.8838 13.0631 20.1109 12.6503 21.6852L12.6235 21.7882C12.6071 21.8503 12.5711 21.9054 12.5209 21.9456C12.4708 21.9857 12.4091 22.0087 12.3449 22.0111C12.2807 22.0136 12.2174 21.9954 12.1644 21.9592C12.1113 21.923 12.0712 21.8707 12.0501 21.8101C11.8157 21.1369 11.488 20.6437 10.8562 20.02C9.93721 19.11 9.57871 19.0305 9.49355 19.7142C9.38567 20.5918 10.5966 22.407 11.6316 22.9205C11.8911 23.0486 12.102 23.2343 12.102 23.3341C12.102 23.4339 11.8676 23.9765 11.5813 24.5402L11.4426 24.8135C11.413 24.872 11.3664 24.92 11.3089 24.9513C11.2514 24.9827 11.1858 24.9958 11.1207 24.9889C11.0555 24.982 10.9941 24.9555 10.9444 24.9129C10.8947 24.8703 10.8591 24.8136 10.8424 24.7503C10.565 23.7121 10.1043 22.8523 9.5706 22.3738C8.05955 21.0233 8.55675 24.3196 10.084 25.7836C10.4084 26.0942 10.4612 26.5938 10.2081 26.9653L9.93072 27.3741L9.80581 27.5582C9.76169 27.6232 9.69865 27.673 9.62524 27.701C9.55183 27.7289 9.47161 27.7336 9.39545 27.7143C9.3193 27.6951 9.2509 27.6529 9.19953 27.5935C9.14816 27.5341 9.1163 27.4603 9.10828 27.3822C8.99068 26.2564 8.5389 25.1023 8.0701 24.7316C7.81055 24.5256 7.75378 24.5337 7.54938 24.8014C7.06273 25.4372 7.40014 27.3498 8.2023 28.5112C8.43833 28.8535 8.38885 29.3167 8.08632 29.6013L7.624 30.0369L7.10653 30.5244C7.07535 30.5539 7.03555 30.5726 6.99294 30.5779C6.95034 30.5832 6.90716 30.5747 6.86973 30.5536C6.8323 30.5326 6.80258 30.5002 6.78492 30.461C6.76725 30.4219 6.76257 30.3782 6.77155 30.3362C7.06598 28.9622 6.77561 27.0756 6.24029 26.8777C5.50383 26.6076 5.10153 28.9744 5.63036 30.4651L5.72363 30.7287C5.85909 31.1108 5.70741 31.5358 5.36027 31.7458C4.98747 31.9684 4.60711 32.1781 4.21989 32.3744C4.18284 32.3932 4.14078 32.3995 4.09984 32.3927C4.05891 32.3858 4.02124 32.366 3.99235 32.3362C3.96345 32.3064 3.94484 32.2681 3.93923 32.227C3.93362 32.1859 3.9413 32.144 3.96115 32.1076L4.0163 32.0046C4.38697 31.307 4.62218 29.736 4.45186 29.0863C4.2572 28.3442 3.72999 28.5591 3.22874 29.5851C2.85889 30.3443 2.78508 30.7125 2.78508 31.814V32.2195C2.78508 32.7792 2.46389 33.2885 1.9594 33.531C0.645445 34.1629 -0.101562 34.9821 -0.101562 35.7931C-0.101562 36.3163 0.43213 36.1095 0.590291 35.5255C0.737097 34.9804 1.33 34.437 2.47849 33.7914L2.67315 33.6827C2.83106 33.5941 3.01291 33.5576 3.19279 33.5784C3.37266 33.5993 3.54136 33.6763 3.67484 33.7987C4.31154 34.3827 5.66199 34.8409 6.74884 34.8409C7.7116 34.8409 8.04414 34.5854 7.65969 34.141C7.32066 33.75 5.94425 33.218 5.01475 33.119C4.95141 33.1123 4.89178 33.0858 4.84428 33.0434C4.79678 33.0009 4.76381 32.9446 4.75001 32.8825C4.73621 32.8203 4.74228 32.7553 4.76737 32.6968C4.79246 32.6382 4.8353 32.589 4.88984 32.5561L5.22887 32.3525L5.6847 32.0784C5.88775 31.9566 6.11806 31.8875 6.35464 31.8774C6.59122 31.8674 6.82655 31.9167 7.03921 32.0208C7.96547 32.4742 9.66631 32.591 10.4944 32.2593C10.8351 32.1238 11.1125 31.9486 11.1125 31.8699C11.1125 31.3079 9.29889 30.8026 7.91599 30.9802C7.86006 30.9874 7.80329 30.9767 7.75377 30.9498C7.70425 30.9228 7.66452 30.8809 7.64024 30.83C7.61596 30.7791 7.60837 30.7218 7.61857 30.6663C7.62876 30.6109 7.65621 30.56 7.697 30.5211L8.04901 30.1837C8.94688 29.324 9.00933 29.2915 9.4976 29.4553C10.6218 29.8309 12.8871 29.4886 13.4873 28.8527C13.759 28.5656 13.755 28.5396 13.3949 28.2979C12.8896 27.9589 11.4272 27.9784 10.3371 28.3393C9.86502 28.4958 9.52518 28.5469 9.58277 28.4529C9.63954 28.3588 9.96317 27.8867 10.3022 27.4033L10.3184 27.3806C10.5037 27.1161 10.7501 26.9002 11.0365 26.7511C11.323 26.602 11.6412 26.5241 11.9641 26.5241C13.622 26.5241 15.8954 25.3772 15.3909 24.7949C14.9935 24.3358 13.025 24.6862 11.9025 25.417C11.737 25.524 11.535 25.3472 11.6194 25.1696L11.9057 24.5661L12.1636 24.0211C12.2627 23.812 12.4126 23.631 12.5996 23.4947C12.7867 23.3584 13.0048 23.2711 13.2343 23.2408C13.739 23.1599 14.2314 23.0155 14.6999 22.811C16.2004 22.1142 17.151 20.7751 16.1444 20.7751C15.5077 20.7751 14.0924 21.3453 13.394 21.8839C12.6373 22.4662 12.6381 22.4744 13.1734 20.2033C13.2302 19.9576 13.42 19.8424 13.8807 19.7718C15.0584 19.591 16.8274 18.1399 16.9263 17.2737C17.052 16.1755 14.5385 17.4335 13.5619 18.9575L13.5133 19.0321C13.496 19.0588 13.4707 19.0792 13.441 19.0906C13.4114 19.102 13.3789 19.1036 13.3482 19.0953C13.3175 19.087 13.2903 19.0692 13.2704 19.0444C13.2505 19.0197 13.239 18.9892 13.2375 18.9575V18.9518C13.2343 18.8788 13.1296 18.8691 13.1134 18.9405C13.1062 18.9731 13.0888 19.0025 13.0639 19.0247C13.039 19.0469 13.0077 19.0607 12.9745 19.0641C12.9413 19.0675 12.9078 19.0604 12.8789 19.0437C12.85 19.0271 12.827 19.0017 12.8133 18.9713L12.7038 18.732C12.3696 18.0061 11.531 17.1261 10.7215 16.6524C10.0873 16.2826 9.81474 16.2712 9.67847 16.6119V16.611Z" fill="#00163A"/>
</g>
</g>
<defs>
<clipPath id="clip0_1915_6158">
<rect width="17.4198" height="36.4987" fill="white"/>
</clipPath>
<clipPath id="clip1_1915_6158">
<rect width="17.8438" height="36.4987" fill="white" transform="translate(-0.211914 3.05176e-05)"/>
</clipPath>
</defs>
</svg>
